<svg width="300" height="299.79758" xmlns="http://www.w3.org/2000/svg" version="1.2">
 <defs id="defs453">
  <g id="g442"/>
  <clipPath id="clip1">
   <path id="path444" d="m29,29l555,0l0,735l-555,0l0,-735zm0,0"/>
  </clipPath>
  <clipPath id="clip2">
   <path id="path447" d="m29,77l555,0l0,687l-555,0l0,-687zm0,0"/>
  </clipPath>
  <clipPath id="clip3">
   <path id="path450" d="m29,29l555,0l0,48l-555,0l0,-48zm0,0"/>
  </clipPath>
 </defs>
 <g>
  <title>Layer 1</title>
  <path fill-rule="nonzero" fill="#517fff" id="path2277" d="m299.79758,149.89879c0,9.85663 -0.97595,19.56686 -2.87891,29.22832c-1.90302,9.66144 -4.78192,19.03012 -8.53915,28.15482c-3.75723,9.0759 -8.39279,17.71266 -13.85785,25.91025c-5.46506,8.14877 -11.66202,15.76083 -18.63974,22.68976c-6.92892,6.97772 -14.54099,13.17468 -22.68976,18.63974c-8.19759,5.46506 -16.83435,10.10062 -25.91025,13.85785c-9.12469,3.75723 -18.49338,6.63614 -28.15482,8.53915c-9.66145,1.90302 -19.37169,2.87891 -29.22832,2.87891c-9.85661,0 -19.56686,-0.97595 -29.22831,-2.87891c-9.66144,-1.90302 -19.03012,-4.78192 -28.15482,-8.53915c-9.07589,-3.75723 -17.71265,-8.39279 -25.91024,-13.85785c-8.14879,-5.46506 -15.76085,-11.66202 -22.68976,-18.63974c-6.97771,-6.92892 -13.17469,-14.54099 -18.63975,-22.68976c-5.46506,-8.19759 -10.10061,-16.83435 -13.85784,-25.91025c-3.75723,-9.12469 -6.63615,-18.49338 -8.53915,-28.15482c-1.90302,-9.66145 -2.87892,-19.37169 -2.87892,-29.22832c0,-9.85661 0.97597,-19.56686 2.87892,-29.22831c1.903,-9.66144 4.78192,-19.03012 8.53915,-28.15482c3.75723,-9.07589 8.39278,-17.71265 13.85784,-25.91024c5.46506,-8.14879 11.66204,-15.76085 18.63975,-22.68976c6.92891,-6.97771 14.54097,-13.17469 22.68976,-18.63975c8.19759,-5.46506 16.83435,-10.10061 25.91024,-13.85784c9.12469,-3.75723 18.49338,-6.63615 28.15482,-8.53915c9.66145,-1.90302 19.3717,-2.87892 29.22831,-2.87892c9.85663,0 19.56686,0.97597 29.22832,2.87892c9.66144,1.903 19.03012,4.78192 28.15482,8.53915c9.0759,3.75723 17.71266,8.39278 25.91025,13.85784c8.14877,5.46506 15.76083,11.66204 22.68976,18.63975c6.97772,6.92891 13.17468,14.54097 18.63974,22.68976c5.46506,8.19759 10.10062,16.83434 13.85785,25.91024c3.75723,9.12469 6.63614,18.49338 8.53915,28.15482c1.90302,9.66145 2.87891,19.3717 2.87891,29.22831zm0,0"/>
  <path fill-rule="evenodd" fill="#ffffff" id="path2279" d="m224.84819,89.00241c0,7.75844 -12.58916,14.05301 -28.10603,14.05301c-15.51686,0 -28.10602,-6.29457 -28.10602,-14.05301c0,-7.75844 12.58916,-14.05301 28.10602,-14.05301c15.51688,0 28.10603,6.29457 28.10603,14.05301zm-103.05542,94.61385l0,25.32469c0,8.39279 12.19879,14.98013 28.10602,14.98013c15.90724,0 28.10603,-6.58734 28.10603,-14.98013l0,-25.32469c-7.51447,6.58734 -17.81024,9.36868 -28.10603,9.36868c-10.29578,0 -20.59157,-2.78134 -28.10602,-9.36868zm46.84337,-80.56084l0,-3.75723c7.51445,6.58734 17.81024,9.36868 28.10602,9.36868c10.29579,0 20.59158,-2.78134 28.10603,-9.36868l0,26.2518c0,7.46568 -11.2229,14.05302 -26.2518,14.98013l-23.17772,26.88614c1.65903,1.80542 2.58615,3.80602 2.58615,5.90422c0,7.75842 -12.58916,14.05301 -28.10603,14.05301c-15.51686,0 -28.10602,-6.29459 -28.10602,-14.05301c0,-1.90302 0.78072,-3.75723 2.19578,-5.41628l-22.78735,-26.44698c-14.05301,-0.92711 -26.25182,-7.46567 -26.25182,-14.98012l0,-27.17892c7.51447,6.58734 17.81024,9.36868 28.10603,9.36868c10.29579,0 20.59157,-2.78134 28.10602,-9.36868l0,3.75723l37.4747,0zm-2.58614,58.7494c-4.58675,-1.61024 -10.1494,-2.53735 -16.15121,-2.53735c-2.48856,0 -4.87952,0.14639 -7.17288,0.43919c-3.61084,0.48793 -7.27049,1.26869 -10.63736,2.39096l-19.66446,-22.49461c10.29579,-1.90302 18.73735,-7.51447 18.73735,-14.05302l0,-13.1259l37.4747,0l0,13.1259c0,6.53856 6.53856,12.15001 16.88313,14.05302l-19.46927,22.20181zm-34.88857,-72.80241c0,7.75844 -12.58915,14.05301 -28.10602,14.05301c-15.51688,0 -28.10603,-6.29457 -28.10603,-14.05301c0,-7.75844 12.58916,-14.05301 28.10603,-14.05301c15.51687,0 28.10602,6.29457 28.10602,14.05301zm0,0"/>
 </g>
</svg>